<svg xmlns="http://www.w3.org/2000/svg" height="997" width="960.0" font-size="16" font-family="sans-serif" stroke-width="2">
<g transform="translate(10.0 0)">
<text fill="hsl(0, 100%, 40%)" y="22">creating single-use regexes.pcre2 1.47 μs</text>
<g>
<title>1.47 μs ± 130 ns</title>
<rect y="28" rx="5" height="22" width="148.83928675234193" fill="hsl(0, 100%, 80%)" stroke="hsl(0, 100%, 55%)" />
<g stroke="hsl(0, 100%, 40%)"><line x1="135.67572077241226" x2="162.0028527322716" y1="39" y2="39" />
<line x1="135.67572077241226" x2="135.67572077241226" y1="33" y2="45" />
<line x1="162.0028527322716" x2="162.0028527322716" y1="33" y2="45" />
</g>
</g>
<text fill="hsl(20, 100%, 40%)" y="77">creating single-use regexes.regex-pcre-builtin 926  ns</text>
<g>
<title>926  ns ±  83 ns</title>
<rect y="83" rx="5" height="22" width="93.65686044433727" fill="hsl(20, 100%, 80%)" stroke="hsl(20, 100%, 55%)" />
<g stroke="hsl(20, 100%, 40%)"><line x1="85.22074765268576" x2="102.09297323598878" y1="94" y2="94" />
<line x1="85.22074765268576" x2="85.22074765268576" y1="88" y2="100" />
<line x1="102.09297323598878" x2="102.09297323598878" y1="88" y2="100" />
</g>
</g>
<text fill="hsl(40, 100%, 40%)" y="132">creating single-use regexes.pcre-light 617  ns</text>
<g>
<title>617  ns ±  35 ns</title>
<rect y="138" rx="5" height="22" width="62.41800601549733" fill="hsl(40, 100%, 80%)" stroke="hsl(40, 100%, 55%)" />
<g stroke="hsl(40, 100%, 40%)"><line x1="58.89837168194941" x2="65.93764034904525" y1="149" y2="149" />
<line x1="58.89837168194941" x2="58.89837168194941" y1="143" y2="155" />
<line x1="65.93764034904525" x2="65.93764034904525" y1="143" y2="155" />
</g>
</g>
<text fill="hsl(60, 100%, 40%)" y="187">strings.pcre2 645  ns</text>
<g>
<title>645  ns ±  42 ns</title>
<rect y="193" rx="5" height="22" width="65.22697414455709" fill="hsl(60, 100%, 80%)" stroke="hsl(60, 100%, 55%)" />
<g stroke="hsl(60, 100%, 40%)"><line x1="61.01397731162816" x2="69.43997097748601" y1="204" y2="204" />
<line x1="61.01397731162816" x2="61.01397731162816" y1="198" y2="210" />
<line x1="69.43997097748601" x2="69.43997097748601" y1="198" y2="210" />
</g>
</g>
<text fill="hsl(80, 100%, 40%)" y="242">strings.regex-pcre-builtin 275  ns</text>
<g>
<title>275  ns ±  22 ns</title>
<rect y="248" rx="5" height="22" width="27.851375878157114" fill="hsl(80, 100%, 80%)" stroke="hsl(80, 100%, 55%)" />
<g stroke="hsl(80, 100%, 40%)"><line x1="25.651882695648993" x2="30.050869060665235" y1="259" y2="259" />
<line x1="25.651882695648993" x2="25.651882695648993" y1="253" y2="265" />
<line x1="30.050869060665235" x2="30.050869060665235" y1="253" y2="265" />
</g>
</g>
<text fill="hsl(100, 100%, 40%)" y="297">strings.pcre-light 147  ns</text>
<g>
<title>147  ns ±  10 ns</title>
<rect y="303" rx="5" height="22" width="14.839697976390141" fill="hsl(100, 100%, 80%)" stroke="hsl(100, 100%, 55%)" />
<g stroke="hsl(100, 100%, 40%)"><line x1="13.790142249072593" x2="15.88925370370769" y1="314" y2="314" />
<line x1="13.790142249072593" x2="13.790142249072593" y1="308" y2="320" />
<line x1="15.88925370370769" x2="15.88925370370769" y1="308" y2="320" />
</g>
</g>
<text fill="hsl(120, 100%, 40%)" y="352">texts.shorter.pcre2 577  ns</text>
<g>
<title>577  ns ±  22 ns</title>
<rect y="358" rx="5" height="22" width="58.42935020141366" fill="hsl(120, 100%, 80%)" stroke="hsl(120, 100%, 55%)" />
<g stroke="hsl(120, 100%, 40%)"><line x1="56.15922552086585" x2="60.69947488196147" y1="369" y2="369" />
<line x1="56.15922552086585" x2="56.15922552086585" y1="363" y2="375" />
<line x1="60.69947488196147" x2="60.69947488196147" y1="363" y2="375" />
</g>
</g>
<text fill="hsl(140, 100%, 40%)" y="407">texts.shorter.regex-pcre-builtin 180  ns</text>
<g>
<title>180  ns ±  10 ns</title>
<rect y="413" rx="5" height="22" width="18.2006644174936" fill="hsl(140, 100%, 80%)" stroke="hsl(140, 100%, 55%)" />
<g stroke="hsl(140, 100%, 40%)"><line x1="17.154953957977636" x2="19.24637487700956" y1="424" y2="424" />
<line x1="17.154953957977636" x2="17.154953957977636" y1="418" y2="430" />
<line x1="19.24637487700956" x2="19.24637487700956" y1="418" y2="430" />
</g>
</g>
<text fill="hsl(160, 100%, 40%)" y="462">texts.shorter.pcre-light 199  ns</text>
<g>
<title>199  ns ±  11 ns</title>
<rect y="468" rx="5" height="22" width="20.10650056946995" fill="hsl(160, 100%, 80%)" stroke="hsl(160, 100%, 55%)" />
<g stroke="hsl(160, 100%, 40%)"><line x1="18.956967879311122" x2="21.25603325962878" y1="479" y2="479" />
<line x1="18.956967879311122" x2="18.956967879311122" y1="473" y2="485" />
<line x1="21.25603325962878" x2="21.25603325962878" y1="473" y2="485" />
</g>
</g>
<text fill="hsl(180, 100%, 40%)" y="517">texts.longer.pcre2 1.24 μs</text>
<g>
<title>1.24 μs ±  83 ns</title>
<rect y="523" rx="5" height="22" width="125.00894789080817" fill="hsl(180, 100%, 80%)" stroke="hsl(180, 100%, 55%)" />
<g stroke="hsl(180, 100%, 40%)"><line x1="116.60400200660112" x2="133.41389377501523" y1="534" y2="534" />
<line x1="116.60400200660112" x2="116.60400200660112" y1="528" y2="540" />
<line x1="133.41389377501523" x2="133.41389377501523" y1="528" y2="540" />
</g>
</g>
<text fill="hsl(200, 100%, 40%)" y="572">texts.longer.regex-pcre-builtin 630  ns</text>
<g>
<title>630  ns ±  54 ns</title>
<rect y="578" rx="5" height="22" width="63.797546434945865" fill="hsl(200, 100%, 80%)" stroke="hsl(200, 100%, 55%)" />
<g stroke="hsl(200, 100%, 40%)"><line x1="58.330587533667625" x2="69.2645053362241" y1="589" y2="589" />
<line x1="58.330587533667625" x2="58.330587533667625" y1="583" y2="595" />
<line x1="69.2645053362241" x2="69.2645053362241" y1="583" y2="595" />
</g>
</g>
<g fill="hsl(220, 100%, 40%)">
<text y="627">texts.longer.pcre-light</text>
<text y="627" x="872.9719226554308" text-anchor="end">8.63 μs</text>
</g>
<g>
<title>8.63 μs ± 662 ns</title>
<rect y="633" rx="5" height="22" width="872.9719226554308" fill="hsl(220, 100%, 80%)" stroke="hsl(220, 100%, 55%)" />
<g stroke="hsl(220, 100%, 40%)"><line x1="805.9438453108617" x2="940.0" y1="644" y2="644" />
<line x1="805.9438453108617" x2="805.9438453108617" y1="638" y2="650" />
<line x1="940.0" x2="940.0" y1="638" y2="650" />
</g>
</g>
<text fill="hsl(240, 100%, 40%)" y="682">Template Haskell.pattern with named capture 651  ns</text>
<g>
<title>651  ns ±  45 ns</title>
<rect y="688" rx="5" height="22" width="65.86043141923969" fill="hsl(240, 100%, 80%)" stroke="hsl(240, 100%, 55%)" />
<g stroke="hsl(240, 100%, 40%)"><line x1="61.300753336620254" x2="70.42010950185912" y1="699" y2="699" />
<line x1="61.300753336620254" x2="61.300753336620254" y1="693" y2="705" />
<line x1="70.42010950185912" x2="70.42010950185912" y1="693" y2="705" />
</g>
</g>
<text fill="hsl(260, 100%, 40%)" y="737">Template Haskell.expression with capture 649  ns</text>
<g>
<title>649  ns ±  44 ns</title>
<rect y="743" rx="5" height="22" width="65.6512690890849" fill="hsl(260, 100%, 80%)" stroke="hsl(260, 100%, 55%)" />
<g stroke="hsl(260, 100%, 40%)"><line x1="61.23163970744961" x2="70.0708984707202" y1="754" y2="754" />
<line x1="61.23163970744961" x2="61.23163970744961" y1="748" y2="760" />
<line x1="70.0708984707202" x2="70.0708984707202" y1="748" y2="760" />
</g>
</g>
<text fill="hsl(280, 100%, 40%)" y="792">substitutions.single.PCRE2-native 308  ns</text>
<g>
<title>308  ns ±  23 ns</title>
<rect y="798" rx="5" height="22" width="31.193723127800254" fill="hsl(280, 100%, 80%)" stroke="hsl(280, 100%, 55%)" />
<g stroke="hsl(280, 100%, 40%)"><line x1="28.902955430633394" x2="33.48449082496711" y1="809" y2="809" />
<line x1="28.902955430633394" x2="28.902955430633394" y1="803" y2="815" />
<line x1="33.48449082496711" x2="33.48449082496711" y1="803" y2="815" />
</g>
</g>
<text fill="hsl(300, 100%, 40%)" y="847">substitutions.single.lens-powered 965  ns</text>
<g>
<title>965  ns ±  41 ns</title>
<rect y="853" rx="5" height="22" width="97.66059375585348" fill="hsl(300, 100%, 80%)" stroke="hsl(300, 100%, 55%)" />
<g stroke="hsl(300, 100%, 40%)"><line x1="93.49293060648012" x2="101.82825690522685" y1="864" y2="864" />
<line x1="93.49293060648012" x2="93.49293060648012" y1="858" y2="870" />
<line x1="101.82825690522685" x2="101.82825690522685" y1="858" y2="870" />
</g>
</g>
<text fill="hsl(320, 100%, 40%)" y="902">substitutions.multiple.PCRE2-native 467  ns</text>
<g>
<title>467  ns ±  45 ns</title>
<rect y="908" rx="5" height="22" width="47.257835325222246" fill="hsl(320, 100%, 80%)" stroke="hsl(320, 100%, 55%)" />
<g stroke="hsl(320, 100%, 40%)"><line x1="42.72669317734091" x2="51.78897747310358" y1="919" y2="919" />
<line x1="42.72669317734091" x2="42.72669317734091" y1="913" y2="925" />
<line x1="51.78897747310358" x2="51.78897747310358" y1="913" y2="925" />
</g>
</g>
<text fill="hsl(340, 100%, 40%)" y="957">substitutions.multiple.lens-powered 1.84 μs</text>
<g>
<title>1.84 μs ± 166 ns</title>
<rect y="963" rx="5" height="22" width="186.30079639673002" fill="hsl(340, 100%, 80%)" stroke="hsl(340, 100%, 55%)" />
<g stroke="hsl(340, 100%, 40%)"><line x1="169.52207153576035" x2="203.0795212576997" y1="974" y2="974" />
<line x1="169.52207153576035" x2="169.52207153576035" y1="968" y2="980" />
<line x1="203.0795212576997" x2="203.0795212576997" y1="968" y2="980" />
</g>
</g>
</g>
</svg>
